<?xml version="1.0" encoding="utf-8"?>
<!-- Generator: Adobe Illustrator 19.0.0, SVG Export Plug-In . SVG Version: 6.00 Build 0)  -->
<!DOCTYPE svg PUBLIC "-//W3C//DTD SVG 1.1//EN" "http://www.w3.org/Graphics/SVG/1.1/DTD/svg11.dtd">
<svg version="1.1" id="Layer_1" xmlns="http://www.w3.org/2000/svg" xmlns:xlink="http://www.w3.org/1999/xlink" x="0px" y="0px"
	 viewBox="0 0 197 36" style="enable-background:new 0 0 197 36;" xml:space="preserve">
<style type="text/css">
	.st0{fill:#0A0A0A;}
</style>
<g>
	<path class="st0" d="M7.6,5.6c0-1.5-0.5-2.2-1.7-2.2c-1.2,0-1.7,0.7-1.7,2.2v24.9c0,1.5,0.5,2.2,1.7,2.2c1.2,0,1.7-0.7,1.7-2.2
		v-4.7h3.1v4.8c0,2.9-1.6,4.7-4.8,4.7c-3.2,0-4.8-1.8-4.8-4.7V5.5c0-2.9,1.6-4.7,4.8-4.7c3.2,0,4.8,1.8,4.8,4.7v4.5H7.6V5.6z"/>
	<path class="st0" d="M23.2,6.5c0-3.3,1.3-5.7,5.4-5.7c4.2,0,5.4,2.4,5.4,5.7v23c0,3.3-1.3,5.7-5.4,5.7c-4.2,0-5.4-2.4-5.4-5.7V6.5z
		 M26.2,29.4c0,1.9,0.4,3.2,2.3,3.2c2,0,2.3-1.3,2.3-3.2V6.6c0-1.9-0.4-3.2-2.3-3.2c-2,0-2.3,1.3-2.3,3.2V29.4z"/>
	<path class="st0" d="M47.9,1.1H51v31.3h5.1v2.6h-8.2V1.1z"/>
	<path class="st0" d="M69.2,6.5c0-3.3,1.3-5.7,5.4-5.7c4.2,0,5.4,2.4,5.4,5.7v23c0,3.3-1.3,5.7-5.4,5.7c-4.2,0-5.4-2.4-5.4-5.7V6.5z
		 M72.3,29.4c0,1.9,0.4,3.2,2.3,3.2c2,0,2.3-1.3,2.3-3.2V6.6c0-1.9-0.4-3.2-2.3-3.2c-2,0-2.3,1.3-2.3,3.2V29.4z"/>
	<path class="st0" d="M101.6,20.7c0-1.6-1-2.1-2.4-2.1h-2.1v16.3H94V1.1h5.8c3,0,4.8,0.5,4.8,3.9v8.6c0,2.6-1,3.5-3.4,3.7v0.1
		c2.2,0.1,3.5,0.8,3.5,3.1v14.5h-3.1V20.7z M99.1,16c1.5,0,2.3-0.4,2.3-2.4V6c0-2-1-2.3-2.6-2.3h-1.7V16H99.1z"/>
	<path class="st0" d="M138.4,1.1h2.9l-3.4,33.9h-4l-2.3-30.1h-0.1L129,34.9h-4l-3.4-33.9h2.9l2.5,30.3h0.1l2.4-30.3h3.8l2.6,30.3
		h0.1L138.4,1.1z"/>
	<path class="st0" d="M153.3,6.5c0-3.3,1.3-5.7,5.4-5.7c4.2,0,5.4,2.4,5.4,5.7v23c0,3.3-1.3,5.7-5.4,5.7c-4.2,0-5.4-2.4-5.4-5.7V6.5
		z M156.4,29.4c0,1.9,0.4,3.2,2.3,3.2c2,0,2.3-1.3,2.3-3.2V6.6c0-1.9-0.4-3.2-2.3-3.2c-2,0-2.3,1.3-2.3,3.2V29.4z"/>
	<path class="st0" d="M193.1,1.1h2.9l-3.4,33.9h-4l-2.3-30.1h-0.1l-2.3,30.1h-4l-3.4-33.9h2.9l2.5,30.3h0.1l2.4-30.3h3.8l2.6,30.3
		h0.1L193.1,1.1z"/>
</g>
</svg>
